HIERARCHY
ROOT Hips
{
	OFFSET 0.000000 0.000000 0.000000 
	CHANNELS 6 Xposition Yposition Zposition Zrotation Yrotation Xrotation
	JOINT LeftUpLeg
	{
		OFFSET 1.363060 -1.794630 0.839290 
		CHANNELS 3 Zrotation Yrotation Xrotation
		JOINT LeftLeg
		{
			OFFSET 2.448110 -6.726130 0.000000 
			CHANNELS 3 Zrotation Yrotation Xrotation
			JOINT LeftFoot
			{
				OFFSET 2.562200 -7.039590 0.000000 
				CHANNELS 3 Zrotation Yrotation Xrotation
				JOINT LeftToeBase
				{
					OFFSET 0.157640 -0.433110 2.322550 
					CHANNELS 3 Zrotation Yrotation Xrotation
					End Site
					{
						OFFSET 0.000000 0.000000 0.000000 
					}
				}
			}
		}
	}
	JOINT RightUpLeg
	{
		OFFSET -1.305520 -1.794630 0.839290 
		CHANNELS 3 Zrotation Yrotation Xrotation
		JOINT RightLeg
		{
			OFFSET -2.542530 -6.985550 0.000000 
			CHANNELS 3 Zrotation Yrotation Xrotation
			JOINT RightFoot
			{
				OFFSET -2.568260 -7.056230 0.000000 
				CHANNELS 3 Zrotation Yrotation Xrotation
				JOINT RightToeBase
				{
					OFFSET -0.164730 -0.452590 2.363150 
					CHANNELS 3 Zrotation Yrotation Xrotation
					End Site
					{
						OFFSET 0.000000 0.000000 0.000000 
					}
				}
			}
		}
	}
	JOINT Spine
	{
		OFFSET 0.028270 2.035590 -0.193380 
		CHANNELS 3 Zrotation Yrotation Xrotation
		JOINT Spine1
		{
			OFFSET 0.056720 2.048850 -0.042750 
			CHANNELS 3 Zrotation Yrotation Xrotation
			JOINT Neck1
			{
				OFFSET -0.054170 1.746240 0.172020 
				CHANNELS 3 Zrotation Yrotation Xrotation
				JOINT Head
				{
					OFFSET 0.104070 1.761360 -0.123970 
					CHANNELS 3 Zrotation Yrotation Xrotation
					End Site
					{
						OFFSET 0.000000 0.000000 0.000000 
					}
				}
			}
			JOINT LeftArm
			{
				OFFSET 3.362410 1.200890 -0.311210 
				CHANNELS 3 Zrotation Yrotation Xrotation
				JOINT LeftForeArm
				{
					OFFSET 4.983000 -0.000000 -0.000000 
					CHANNELS 3 Zrotation Yrotation Xrotation
					JOINT LeftHand
					{
						OFFSET 3.483560 -0.000000 -0.000000 
						CHANNELS 3 Zrotation Yrotation Xrotation
						JOINT LeftHandIndex1
						{
							OFFSET 0.715260 -0.000000 -0.000000 
							CHANNELS 3 Zrotation Yrotation Xrotation
							End Site
							{
								OFFSET 0.000000 0.000000 0.000000 
							}
						}
					}
				}
			}
			JOINT RightArm
			{
				OFFSET -3.136600 1.374050 -0.404650 
				CHANNELS 3 Zrotation Yrotation Xrotation
				JOINT RightForeArm
				{
					OFFSET -5.241900 -0.000000 -0.000000 
					CHANNELS 3 Zrotation Yrotation Xrotation
					JOINT RightHand
					{
						OFFSET -3.444170 -0.000000 -0.000000 
						CHANNELS 3 Zrotation Yrotation Xrotation
						JOINT RightHandIndex1
						{
							OFFSET -0.622530 -0.000000 -0.000000 
							CHANNELS 3 Zrotation Yrotation Xrotation
							End Site
							{
								OFFSET 0.000000 0.000000 0.000000 
							}
						}
					}
				}
			}
		}
	}
}
MOTION
Frames: 16
Frame Time: 0.041667
6.947918 17.472243 44.012606 -174.926632 -13.119301 -169.373906 -9.569530 5.913830 -21.268368 -1.170555 9.311007 23.475069 2.716277 -2.194056 8.642544 1.128000 -6.745900 -18.964800 23.539656 -11.596912 -22.414452 1.510522 -9.321226 22.059760 -6.150606 17.751809 9.046372 -0.044500 1.361700 -3.744600 -0.192738 8.020459 -3.993103 -2.517955 3.073439 -2.060604 11.307679 8.956199 16.844581 20.054200 1.953800 4.987000 -74.625001 4.918902 41.505915 14.307515 -20.756097 -3.952784 1.705435 -0.831913 -42.489005 -7.125000 0.000000 0.000000 80.461361 -5.553525 29.697562 -9.449132 18.951788 -2.243678 0.097638 0.453813 27.154910 7.125000 0.000000 0.000000 
6.948694 17.471689 44.016927 -174.935668 -13.148943 -169.382960 -9.578751 5.930162 -21.281468 -1.171470 9.312857 23.479950 2.749571 -2.284309 8.630343 1.138400 -6.775900 -19.053000 23.533940 -11.579477 -22.404791 1.508653 -9.324075 22.065055 -6.140636 17.669683 9.023595 -0.046100 1.386300 -3.812400 -0.166488 7.989160 -3.978843 -2.397510 3.078346 -1.974501 11.326939 9.096517 16.851801 20.075600 2.042900 5.002100 -74.730533 4.996546 42.426489 14.457902 -20.860965 -3.906943 1.567470 -0.785261 -41.947548 -7.125000 0.000000 0.000000 80.310573 -5.491443 29.819109 -9.438348 18.932574 -2.239020 0.100160 0.442302 27.140522 7.125000 0.000000 0.000000 
6.950134 17.472465 44.020806 -174.931826 -13.187536 -169.395339 -9.563189 5.879700 -21.280024 -1.172885 9.315936 23.486697 2.755827 -2.300656 8.663510 1.126100 -6.740500 -18.948800 23.532279 -11.544144 -22.388983 1.512084 -9.318476 22.049836 -6.129393 17.589498 9.034284 -0.044800 1.366400 -3.757400 -0.179090 8.056984 -3.988440 -2.419888 3.106479 -2.003660 11.353613 9.141633 16.819167 20.092600 2.081600 4.980700 -74.692766 5.116046 43.502975 14.559075 -20.913231 -3.848852 1.428664 -0.727463 -41.347065 -7.125000 0.000000 0.000000 80.337964 -5.566447 29.766051 -9.425416 18.919401 -2.235603 0.100193 0.436728 27.134115 7.125000 0.000000 0.000000 
6.951686 17.471910 44.024684 -174.906696 -13.237382 -169.424340 -9.535850 5.865037 -21.278540 -1.170898 9.316909 23.495184 2.769597 -2.335635 8.678456 1.116700 -6.713200 -18.868500 23.558134 -11.522116 -22.363973 1.512784 -9.318166 22.042730 -6.116818 17.502830 9.007616 -0.046900 1.397900 -3.844300 -0.194340 8.134040 -3.990571 -2.456315 3.140368 -2.006435 11.368199 9.146843 16.765875 20.100000 2.104400 4.939900 -74.609990 5.316108 44.658605 14.760617 -21.088045 -3.840206 1.282010 -0.681918 -40.849930 -7.125000 0.000000 0.000000 80.385434 -5.607451 29.648219 -9.412957 18.907000 -2.232800 0.103928 0.428654 27.151589 7.125000 0.000000 0.000000 
6.952905 17.471689 44.028563 -174.900491 -13.284309 -169.443596 -9.523296 5.843193 -21.279286 -1.170808 9.319480 23.503364 2.785157 -2.377160 8.692402 1.108000 -6.687700 -18.793500 23.565513 -11.506128 -22.346355 1.514013 -9.314709 22.031213 -6.105736 17.422639 8.996999 -0.047900 1.411900 -3.882800 -0.201440 8.185601 -3.991970 -2.457421 3.166036 -2.001678 11.381482 9.178382 16.726027 20.110600 2.139500 4.913700 -74.572378 5.470130 45.703807 14.920861 -21.216913 -3.824280 1.134691 -0.628030 -40.308778 -7.125000 0.000000 0.000000 80.392143 -5.643257 29.593673 -9.401459 18.894783 -2.229907 0.105884 0.420698 27.167351 7.125000 0.000000 0.000000 
6.954124 17.471578 44.032330 -174.894404 -13.333583 -169.464251 -9.512742 5.822221 -21.279218 -1.170715 9.322104 23.511796 2.800660 -2.418891 8.705563 1.098700 -6.660500 -18.713500 23.570765 -11.492913 -22.330078 1.514480 -9.312512 22.023852 -6.094866 17.343903 8.985175 -0.048600 1.422500 -3.912000 -0.211885 8.243955 -3.993892 -2.469791 3.193596 -2.001080 11.388106 9.190698 16.677732 20.116200 2.166600 4.884300 -74.518934 5.629517 46.743438 15.083092 -21.352295 -3.818797 0.985985 -0.573054 -39.767429 -7.125000 0.000000 0.000000 80.418373 -5.687354 29.513675 -9.392421 18.886308 -2.228295 0.107460 0.412433 27.194631 7.125000 0.000000 0.000000 
6.955232 17.471246 44.035987 -174.890908 -13.386177 -169.484677 -9.505569 5.805290 -21.278427 -1.171603 9.323240 23.516221 2.818492 -2.466699 8.718482 1.091500 -6.639500 -18.651800 23.573027 -11.481024 -22.314444 1.513902 -9.312081 22.021107 -6.083636 17.261643 8.969198 -0.049300 1.433600 -3.942600 -0.222243 8.298874 -3.995693 -2.482567 3.219456 -2.001513 11.389960 9.195592 16.628141 20.117600 2.190200 4.855500 -74.463813 5.792147 47.756459 15.244422 -21.490922 -3.822734 0.836396 -0.517581 -39.222362 -7.125000 0.000000 0.000000 80.449883 -5.736351 29.428044 -9.385636 18.880860 -2.227582 0.108822 0.401979 27.237501 7.125000 0.000000 0.000000 
6.956229 17.470913 44.039644 -174.889015 -13.438746 -169.506185 -9.501299 5.788785 -21.276530 -1.172697 9.324191 23.519618 2.835840 -2.513871 8.728077 1.087200 -6.626600 -18.613900 23.571720 -11.469068 -22.298101 1.512715 -9.312379 22.021160 -6.072394 17.179158 8.951879 -0.049900 1.441500 -3.964500 -0.233220 8.353275 -3.997979 -2.497724 3.244742 -2.005495 11.387845 9.193422 16.577539 20.115300 2.210200 4.827400 -74.407141 5.955596 48.745512 15.400108 -21.627419 -3.833684 0.686310 -0.461386 -38.666473 -7.125000 0.000000 0.000000 80.488097 -5.792861 29.337313 -9.382338 18.880299 -2.228384 0.109750 0.390849 27.286654 7.125000 0.000000 0.000000 
6.957116 17.470581 44.043301 -174.888476 -13.493293 -169.528319 -9.498771 5.774060 -21.274687 -1.173976 9.324771 23.522237 2.854036 -2.563396 8.735027 1.085600 -6.621900 -18.600000 23.569503 -11.461507 -22.283465 1.510874 -9.313572 22.023834 -6.061468 17.099640 8.933128 -0.050300 1.447300 -3.980500 -0.246870 8.412419 -4.001749 -2.524656 3.270510 -2.018664 11.382588 9.180066 16.523466 20.108400 2.224500 4.797500 -74.337880 6.126517 49.723345 15.552090 -21.764351 -3.852504 0.536702 -0.406469 -38.104820 -7.125000 0.000000 0.000000 80.541706 -5.860117 29.232243 -9.382238 18.884305 -2.230414 0.110380 0.378842 27.339374 7.125000 0.000000 0.000000 
6.958113 17.470137 44.046958 -174.888549 -13.549712 -169.551941 -9.496408 5.756959 -21.271845 -1.175339 9.325382 23.524392 2.870309 -2.608032 8.739862 1.086200 -6.623900 -18.605800 23.567933 -11.459555 -22.271629 1.508567 -9.315136 22.028324 -6.051262 17.024920 8.913040 -0.050600 1.451900 -3.993100 -0.261840 8.472649 -4.006586 -2.557054 3.295824 -2.038483 11.375139 9.161002 16.467553 20.096900 2.235700 4.764900 -74.260871 6.303906 50.685934 15.701329 -21.902769 -3.878864 0.387526 -0.354723 -37.543264 -7.125000 0.000000 0.000000 80.603206 -5.933309 29.123797 -9.384207 18.891218 -2.233260 0.110387 0.369025 27.388787 7.125000 0.000000 0.000000 
6.959110 17.469583 44.050836 -174.888356 -13.606063 -169.574322 -9.494611 5.738155 -21.269611 -1.176774 9.326063 23.526521 2.885719 -2.650740 8.742512 1.087100 -6.626500 -18.613500 23.564410 -11.451607 -22.258419 1.506285 -9.316885 22.032679 -6.039937 16.942161 8.890922 -0.051100 1.458700 -4.011800 -0.278375 8.535676 -4.012712 -2.594953 3.321319 -2.066469 11.365346 9.135644 16.407648 20.081200 2.243800 4.727900 -74.174787 6.496798 51.679488 15.853707 -22.047958 -3.913640 0.231228 -0.304191 -36.942261 -7.125000 0.000000 0.000000 80.669069 -6.008900 29.018161 -9.386294 18.898646 -2.235900 0.109807 0.362646 27.426420 7.125000 0.000000 0.000000 
6.960329 17.469140 44.054826 -174.888172 -13.665465 -169.596110 -9.490432 5.713773 -21.266428 -1.178492 9.326639 23.527940 2.900224 -2.690439 8.748912 1.085100 -6.620700 -18.596400 23.560588 -11.434634 -22.242511 1.504300 -9.318763 22.036421 -6.026256 16.845056 8.867394 -0.051700 1.467400 -4.035900 -0.295141 8.597993 -4.019092 -2.633370 3.346108 -2.096594 11.354818 9.106577 16.345886 20.065600 2.250100 4.689100 -74.086462 6.685408 52.620067 15.996916 -22.188093 -3.953678 0.082159 -0.260420 -36.360784 -7.125000 0.000000 0.000000 80.732905 -6.081395 28.926235 -9.387346 18.904752 -2.237834 0.109020 0.360099 27.445975 7.125000 0.000000 0.000000 
6.961659 17.468586 44.059037 -174.886645 -13.731216 -169.617340 -9.484456 5.689022 -21.264179 -1.180332 9.326928 23.529093 2.918366 -2.739876 8.757237 1.081600 -6.610300 -18.565800 23.557472 -11.412257 -22.224200 1.502344 -9.320882 22.040130 -6.010412 16.734024 8.840491 -0.052700 1.480800 -4.072900 -0.308661 8.649098 -4.024003 -2.662564 3.366932 -2.120733 11.342107 9.080515 16.285069 20.049100 2.258200 4.651300 -74.012101 6.851690 53.447502 16.120923 -22.311797 -3.994077 -0.052152 -0.224593 -35.822235 -7.125000 0.000000 0.000000 80.781254 -6.140554 28.862296 -9.386118 18.907181 -2.238386 0.108045 0.362172 27.460131 7.125000 0.000000 0.000000 
6.962878 17.468032 44.063247 -174.885401 -13.802441 -169.638329 -9.478645 5.666792 -21.264812 -1.182404 9.327341 23.530680 2.941377 -2.802656 8.767789 1.075200 -6.591400 -18.510300 23.551521 -11.373233 -22.198397 1.500783 -9.323172 22.042799 -5.990426 16.597265 8.810268 -0.053900 1.497600 -4.119200 -0.321345 8.696396 -4.027506 -2.690396 3.386479 -2.138303 11.326537 9.048863 16.221815 20.032800 2.264800 4.615400 -73.944315 6.986261 54.119424 16.221004 -22.413594 -4.030884 -0.160303 -0.198078 -35.373966 -7.125000 0.000000 0.000000 80.826459 -6.186715 28.803996 -9.383319 18.906816 -2.237896 0.107150 0.368173 27.471846 7.125000 0.000000 0.000000 
6.964208 17.467478 44.067569 -174.883119 -13.880535 -169.659090 -9.470877 5.643264 -21.265224 -1.184773 9.327494 23.532021 2.968700 -2.876813 8.781518 1.065700 -6.563100 -18.427300 23.549674 -11.348507 -22.179273 1.498749 -9.325719 22.047153 -5.972050 16.472842 8.782800 -0.054800 1.510200 -4.153900 -0.328482 8.726952 -4.028770 -2.701915 3.400277 -2.146414 11.309155 9.024999 16.164032 20.017900 2.274800 4.585000 -73.907104 7.075798 54.567755 16.284477 -22.478581 -4.056390 -0.234704 -0.179933 -35.054764 -7.125000 0.000000 0.000000 80.851896 -6.219833 28.769886 -9.378650 18.902845 -2.236393 0.106528 0.375288 27.496279 7.125000 0.000000 0.000000 
6.965648 17.466813 44.072002 -174.877903 -13.964914 -169.680331 -9.458803 5.619030 -21.266688 -1.187026 9.327525 23.533498 2.999720 -2.960645 8.797210 1.054700 -6.530200 -18.330900 23.549454 -11.307595 -22.153396 1.496927 -9.329113 22.051765 -5.949518 16.324345 8.749415 -0.055900 1.526200 -4.197800 -0.331353 8.744928 -4.028597 -2.701635 3.409500 -2.149330 11.290417 9.005420 16.110145 20.004800 2.286400 4.558800 -73.894447 7.126756 54.809008 16.316674 -22.511432 -4.070246 -0.276268 -0.168766 -34.869168 -7.125000 0.000000 0.000000 80.862710 -6.240870 28.750268 -9.373321 18.896913 -2.234386 0.106233 0.383370 27.529921 7.125000 0.000000 0.000000 
